<?xml version="1.0" standalone="no"?>
<!DOCTYPE svg PUBLIC "-//W3C//DTD SVG 20010904//EN"
 "http://www.w3.org/TR/2001/REC-SVG-20010904/DTD/svg10.dtd">
<svg version="1.0" xmlns="http://www.w3.org/2000/svg"
 width="1024.000000pt" height="1024.000000pt" viewBox="0 0 1024.000000 1024.000000"
 preserveAspectRatio="xMidYMid meet">
<metadata>
Created by potrace 1.14, written by Peter Selinger 2001-2017
</metadata>
<g transform="translate(0.000000,1024.000000) scale(0.100000,-0.100000)"
fill="#000000" stroke="none">
<path d="M0 5120 l0 -5120 5120 0 5120 0 0 5120 0 5120 -5120 0 -5120 0 0
-5120z m4430 3240 l0 -320 80 0 80 0 0 80 0 80 80 0 80 0 0 80 0 80 80 0 80 0
0 80 0 80 -160 0 -160 0 0 80 0 80 160 0 160 0 0 -80 0 -80 80 0 80 0 0 -80 0
-80 80 0 80 0 0 80 0 80 80 0 80 0 0 -80 0 -80 80 0 80 0 0 80 0 80 80 0 80 0
0 -160 0 -160 -160 0 -160 0 0 -80 0 -80 240 0 240 0 0 -80 0 -80 160 0 160 0
0 -80 0 -80 80 0 80 0 0 80 0 80 160 0 160 0 0 -80 0 -80 80 0 80 0 0 -160 0
-160 80 0 80 0 0 80 0 80 80 0 80 0 0 -80 0 -80 80 0 80 0 0 -80 0 -80 80 0
80 0 0 -80 0 -80 -240 0 -240 0 0 -80 0 -80 240 0 241 0 -3 -72 -3 -73 -77 -3
-77 -3 -3 -157 -3 -157 -77 -3 -78 -3 0 -84 0 -85 -80 0 -80 0 0 -320 0 -320
80 0 80 0 -2 -232 -3 -233 -77 -3 -78 -3 0 -244 0 -245 -320 0 -320 0 0 80 0
80 -240 0 -240 0 0 80 0 80 -320 0 -320 0 0 -80 0 -80 -320 0 -320 0 0 -80 0
-80 -320 0 -320 0 0 -80 0 -80 -155 0 -155 0 0 165 0 164 -77 3 -78 3 -3 157
-3 157 -77 3 -77 3 0 310 0 310 78 3 77 3 0 164 0 164 -77 3 -78 3 -3 158 -3
157 -74 0 c-40 0 -76 3 -78 8 -3 4 -8 73 -12 155 l-7 147 81 0 81 0 0 80 0 80
-80 0 -80 0 0 80 0 80 -75 0 -75 0 0 80 0 80 155 0 155 0 0 160 0 160 160 0
160 0 0 80 0 80 -235 0 -236 0 3 158 3 157 77 3 77 3 3 77 3 77 153 3 152 3 0
-81 0 -80 80 0 80 0 0 80 0 80 -75 0 -76 0 3 78 3 77 77 3 77 3 3 77 3 77 73
3 72 3 0 -81 0 -80 160 0 160 0 0 80 0 80 -75 0 -75 0 0 73 c0 41 3 77 7 80 3
4 73 7 155 7 l148 0 0 -320z m2558 -242 l3 -77 77 -3 77 -3 3 -77 3 -78 -81 0
-80 0 0 80 0 80 -80 0 -80 0 0 80 0 81 78 -3 77 -3 3 -77z m-3838 -558 l0
-160 -75 0 -75 0 0 153 c0 85 3 157 7 160 3 4 37 7 75 7 l68 0 0 -160z"/>
<path d="M4910 8280 l0 -80 -80 0 -80 0 0 -80 0 -80 80 0 80 0 0 80 0 80 80 0
80 0 0 80 0 80 -80 0 -80 0 0 -80z"/>
<path d="M4270 7960 l0 -80 80 0 80 0 0 80 0 80 -80 0 -80 0 0 -80z"/>
<path d="M3630 7800 l0 -80 160 0 160 0 0 80 0 80 -160 0 -160 0 0 -80z"/>
<path d="M6990 7320 l0 -80 80 0 80 0 0 80 0 80 -80 0 -80 0 0 -80z"/>
<path d="M6510 5880 l0 -80 80 0 80 0 0 80 0 80 -80 0 -80 0 0 -80z"/>
<path d="M4750 5720 l0 -80 80 0 80 0 0 80 0 80 -80 0 -80 0 0 -80z"/>
<path d="M6190 5640 l0 -160 80 0 80 0 0 160 0 160 -80 0 -80 0 0 -160z"/>
<path d="M4270 5560 l0 -80 80 0 80 0 0 80 0 80 -80 0 -80 0 0 -80z"/>
</g>
</svg>
